<?xml version="1.0" encoding="utf-8"?>
<!-- Generator: Adobe Illustrator 23.0.1, SVG Export Plug-In . SVG Version: 6.00 Build 0)  -->
<svg version="1.1" id="Layer_1" xmlns="http://www.w3.org/2000/svg" xmlns:xlink="http://www.w3.org/1999/xlink" x="0px" y="0px"
	 viewBox="0 0 612 132" style="enable-background:new 0 0 612 132;" xml:space="preserve">
<style type="text/css">
	.st0{filter:url(#pw-goedemorgen-static-b);}
	.st1{fill-rule:evenodd;clip-rule:evenodd;}
	.st2{filter:url(#Adobe_OpacityMaskFilter);}
	.st3{fill-rule:evenodd;clip-rule:evenodd;fill:#FFFFFF;}
	.st4{mask:url(#pw-goedemorgen-static-c_1_);fill:none;stroke:#FFFFFF;stroke-width:16;stroke-linejoin:round;}
	.st5{filter:url(#pw-goedemorgen-static-e);}
	.st6{filter:url(#Adobe_OpacityMaskFilter_1_);}
	.st7{mask:url(#pw-goedemorgen-static-f_1_);fill:none;stroke:#FFFFFF;stroke-width:12;}
	.st8{filter:url(#pw-goedemorgen-static-h);}
	.st9{filter:url(#Adobe_OpacityMaskFilter_2_);}
	.st10{mask:url(#pw-goedemorgen-static-i_1_);fill:none;stroke:#FFFFFF;stroke-width:14;}
	.st11{filter:url(#pw-goedemorgen-static-k);}
	.st12{filter:url(#Adobe_OpacityMaskFilter_3_);}
	.st13{mask:url(#pw-goedemorgen-static-l_1_);fill:none;stroke:#FFFFFF;stroke-width:14;}
	.st14{filter:url(#pw-goedemorgen-static-n);}
	.st15{filter:url(#Adobe_OpacityMaskFilter_4_);}
	.st16{mask:url(#pw-goedemorgen-static-o_1_);fill:none;stroke:#FFFFFF;stroke-width:14;}
	.st17{filter:url(#pw-goedemorgen-static-q);}
	.st18{filter:url(#Adobe_OpacityMaskFilter_5_);}
	.st19{mask:url(#pw-goedemorgen-static-r_1_);fill:none;stroke:#FFFFFF;stroke-width:14;}
	.st20{filter:url(#pw-goedemorgen-static-t);}
	.st21{filter:url(#Adobe_OpacityMaskFilter_6_);}
	.st22{mask:url(#pw-goedemorgen-static-u_1_);fill:none;stroke:#FFFFFF;stroke-width:12;}
	.st23{filter:url(#pw-goedemorgen-static-w);}
	.st24{filter:url(#Adobe_OpacityMaskFilter_7_);}
	.st25{mask:url(#pw-goedemorgen-static-x_1_);fill:none;stroke:#FFFFFF;stroke-width:12;}
	.st26{filter:url(#pw-goedemorgen-static-z);}
	.st27{filter:url(#Adobe_OpacityMaskFilter_8_);}
	.st28{mask:url(#pw-goedemorgen-static-A_1_);fill:none;stroke:#FFFFFF;stroke-width:15;}
	.st29{filter:url(#pw-goedemorgen-static-C);}
	.st30{filter:url(#Adobe_OpacityMaskFilter_9_);}
	.st31{mask:url(#pw-goedemorgen-static-D_1_);fill:none;stroke:#FFFFFF;stroke-width:14;}
	.st32{filter:url(#pw-goedemorgen-static-F);}
	.st33{filter:url(#Adobe_OpacityMaskFilter_10_);}
	.st34{mask:url(#pw-goedemorgen-static-G_1_);fill:none;stroke:#FFFFFF;stroke-width:15;}
</style>
<filter  filterUnits="objectBoundingBox" height="142.3%" id="pw-goedemorgen-static-z" width="174.8%" x="-37.4%" y="-15.1%">
	<feOffset  dy="5" in="SourceAlpha" result="shadowOffsetOuter1"></feOffset>
	<feGaussianBlur  in="shadowOffsetOuter1" result="shadowBlurOuter1" stdDeviation="5"></feGaussianBlur>
	<feColorMatrix  in="shadowBlurOuter1" values="0 0 0 0 0   0 0 0 0 0   0 0 0 0 0  0 0 0 0.5 0"></feColorMatrix>
</filter>
<filter  filterUnits="objectBoundingBox" height="167.8%" id="pw-goedemorgen-static-w" width="198.1%" x="-49%" y="-24.2%">
	<feOffset  dy="5" in="SourceAlpha" result="shadowOffsetOuter1"></feOffset>
	<feGaussianBlur  in="shadowOffsetOuter1" result="shadowBlurOuter1" stdDeviation="5"></feGaussianBlur>
	<feColorMatrix  in="shadowBlurOuter1" values="0 0 0 0 0   0 0 0 0 0   0 0 0 0 0  0 0 0 0.5 0"></feColorMatrix>
</filter>
<filter  filterUnits="objectBoundingBox" height="167.2%" id="pw-goedemorgen-static-t" width="178.7%" x="-39.4%" y="-24%">
	<feOffset  dy="5" in="SourceAlpha" result="shadowOffsetOuter1"></feOffset>
	<feGaussianBlur  in="shadowOffsetOuter1" result="shadowBlurOuter1" stdDeviation="5"></feGaussianBlur>
	<feColorMatrix  in="shadowBlurOuter1" values="0 0 0 0 0   0 0 0 0 0   0 0 0 0 0  0 0 0 0.5 0"></feColorMatrix>
</filter>
<filter  filterUnits="objectBoundingBox" height="166.4%" id="pw-goedemorgen-static-q" width="152.5%" x="-26.3%" y="-23.7%">
	<feOffset  dy="5" in="SourceAlpha" result="shadowOffsetOuter1"></feOffset>
	<feGaussianBlur  in="shadowOffsetOuter1" result="shadowBlurOuter1" stdDeviation="5"></feGaussianBlur>
	<feColorMatrix  in="shadowBlurOuter1" values="0 0 0 0 0   0 0 0 0 0   0 0 0 0 0  0 0 0 0.5 0"></feColorMatrix>
</filter>
<filter  filterUnits="objectBoundingBox" height="168.7%" id="pw-goedemorgen-static-n" width="187.1%" x="-43.6%" y="-24.6%">
	<feOffset  dy="5" in="SourceAlpha" result="shadowOffsetOuter1"></feOffset>
	<feGaussianBlur  in="shadowOffsetOuter1" result="shadowBlurOuter1" stdDeviation="5"></feGaussianBlur>
	<feColorMatrix  in="shadowBlurOuter1" values="0 0 0 0 0   0 0 0 0 0   0 0 0 0 0  0 0 0 0.5 0"></feColorMatrix>
</filter>
<filter  filterUnits="objectBoundingBox" height="141.7%" id="pw-goedemorgen-static-k" width="173.7%" x="-36.9%" y="-14.9%">
	<feOffset  dy="5" in="SourceAlpha" result="shadowOffsetOuter1"></feOffset>
	<feGaussianBlur  in="shadowOffsetOuter1" result="shadowBlurOuter1" stdDeviation="5"></feGaussianBlur>
	<feColorMatrix  in="shadowBlurOuter1" values="0 0 0 0 0   0 0 0 0 0   0 0 0 0 0  0 0 0 0.5 0"></feColorMatrix>
</filter>
<filter  filterUnits="objectBoundingBox" height="168.7%" id="pw-goedemorgen-static-h" width="187.1%" x="-43.6%" y="-24.6%">
	<feOffset  dy="5" in="SourceAlpha" result="shadowOffsetOuter1"></feOffset>
	<feGaussianBlur  in="shadowOffsetOuter1" result="shadowBlurOuter1" stdDeviation="5"></feGaussianBlur>
	<feColorMatrix  in="shadowBlurOuter1" values="0 0 0 0 0   0 0 0 0 0   0 0 0 0 0  0 0 0 0.5 0"></feColorMatrix>
</filter>
<filter  filterUnits="objectBoundingBox" height="167.2%" id="pw-goedemorgen-static-e" width="178.7%" x="-39.4%" y="-24%">
	<feOffset  dy="5" in="SourceAlpha" result="shadowOffsetOuter1"></feOffset>
	<feGaussianBlur  in="shadowOffsetOuter1" result="shadowBlurOuter1" stdDeviation="5"></feGaussianBlur>
	<feColorMatrix  in="shadowBlurOuter1" values="0 0 0 0 0   0 0 0 0 0   0 0 0 0 0  0 0 0 0.5 0"></feColorMatrix>
</filter>
<filter  filterUnits="objectBoundingBox" height="135.9%" id="pw-goedemorgen-static-b" width="168.2%" x="-34.1%" y="-12.8%">
	<feOffset  dy="5" in="SourceAlpha" result="shadowOffsetOuter1"></feOffset>
	<feGaussianBlur  in="shadowOffsetOuter1" result="shadowBlurOuter1" stdDeviation="5"></feGaussianBlur>
	<feColorMatrix  in="shadowBlurOuter1" values="0 0 0 0 0   0 0 0 0 0   0 0 0 0 0  0 0 0 0.5 0"></feColorMatrix>
</filter>
<filter  filterUnits="objectBoundingBox" height="166.4%" id="pw-goedemorgen-static-F" width="180.4%" x="-40.2%" y="-23.7%">
	<feOffset  dy="5" in="SourceAlpha" result="shadowOffsetOuter1"></feOffset>
	<feGaussianBlur  in="shadowOffsetOuter1" result="shadowBlurOuter1" stdDeviation="5"></feGaussianBlur>
	<feColorMatrix  in="shadowBlurOuter1" values="0 0 0 0 0   0 0 0 0 0   0 0 0 0 0  0 0 0 0.5 0"></feColorMatrix>
</filter>
<filter  filterUnits="objectBoundingBox" height="168.7%" id="pw-goedemorgen-static-C" width="187.1%" x="-43.6%" y="-24.6%">
	<feOffset  dy="5" in="SourceAlpha" result="shadowOffsetOuter1"></feOffset>
	<feGaussianBlur  in="shadowOffsetOuter1" result="shadowBlurOuter1" stdDeviation="5"></feGaussianBlur>
	<feColorMatrix  in="shadowBlurOuter1" values="0 0 0 0 0   0 0 0 0 0   0 0 0 0 0  0 0 0 0.5 0"></feColorMatrix>
</filter>
<g transform="translate(16)">
	<g transform="translate(0 13)">
		<g class="st0">
			<path class="st1" d="M21.1,92c9.6,0,15-11.3,16.3-33.8c-2.1,3-4.7,5.3-7.7,6.9c-3,1.6-6,2.4-9.2,2.4c-5.5,0-10.2-2.2-14.2-6.7
				S0.4,50.1,0.4,42.1c0-11,2.8-20.5,8.5-28.6c2.8-4,6.3-7.1,10.7-9.4s9.3-3.5,14.9-3.5S44.4,2.1,47.4,5s4.4,6.5,4.4,10.7
				s-1.3,7.6-4,10.1s-5.8,3.7-9.4,3.7c-2.4,0-4.6-0.6-6.7-1.7c-2.1-1.1-3.8-2.8-4.9-5c1.5,0.4,3,0.6,4.4,0.6c3.1,0,5.5-0.9,7.4-2.7
				c1.8-1.8,2.7-3.8,2.7-6s-0.7-4.1-2.2-5.5S35.4,7,32.7,7c-3.6,0-6.9,1.8-9.8,5.5s-5.2,8.2-6.7,13.4s-2.2,10.7-2.2,16.3
				s1.1,10,3.3,13.2s4.9,4.8,8,4.8s5.9-1.5,8.2-4.6C35.8,52.5,37,48.3,37,43c0-1.3-0.1-2.7-0.3-4c1.3-0.4,2.6-0.4,4-0.4
				c3.3,0,5.6,0.6,6.9,1.7c1.3,1.1,1.9,3,1.9,5.7c0,17.5-3.1,31.1-9.4,40.9c-2.2,3.4-5,6.1-8.5,8.3c-3.5,2.1-7.5,3.2-11.9,3.2
				c-6,0-10.5-1.5-13.5-4.6c-3-3.1-4.5-6.6-4.5-10.5c0-4,1.1-7.1,3.2-9.5c2.1-2.4,4.8-3.6,7.9-3.6c1.7,0,3.6,0.5,5.7,1.5
				c-3,3.8-4.6,7.9-4.6,12.1c0,2.5,0.6,4.5,1.7,6S18.6,92,21.1,92z"/>
		</g>
		<defs>
			<filter id="Adobe_OpacityMaskFilter" filterUnits="userSpaceOnUse" x="-1" y="-4.2" width="55.6" height="107.8">
				<feColorMatrix  type="matrix" values="1 0 0 0 0  0 1 0 0 0  0 0 1 0 0  0 0 0 1 0"/>
			</filter>
		</defs>
		<mask maskUnits="userSpaceOnUse" x="-1" y="-4.2" width="55.6" height="107.8" id="pw-goedemorgen-static-c_1_">
			<g class="st2">
				<path id="pw-goedemorgen-static-a_1_" class="st3" d="M21.1,92c9.6,0,15-11.3,16.3-33.8c-2.1,3-4.7,5.3-7.7,6.9
					c-3,1.6-6,2.4-9.2,2.4c-5.5,0-10.2-2.2-14.2-6.7S0.4,50.1,0.4,42.1c0-11,2.8-20.5,8.5-28.6c2.8-4,6.3-7.1,10.7-9.4
					s9.3-3.5,14.9-3.5S44.4,2.1,47.4,5s4.4,6.5,4.4,10.7s-1.3,7.6-4,10.1s-5.8,3.7-9.4,3.7c-2.4,0-4.6-0.6-6.7-1.7
					c-2.1-1.1-3.8-2.8-4.9-5c1.5,0.4,3,0.6,4.4,0.6c3.1,0,5.5-0.9,7.4-2.7c1.8-1.8,2.7-3.8,2.7-6s-0.7-4.1-2.2-5.5S35.4,7,32.7,7
					c-3.6,0-6.9,1.8-9.8,5.5s-5.2,8.2-6.7,13.4s-2.2,10.7-2.2,16.3s1.1,10,3.3,13.2s4.9,4.8,8,4.8s5.9-1.5,8.2-4.6
					C35.8,52.5,37,48.3,37,43c0-1.3-0.1-2.7-0.3-4c1.3-0.4,2.6-0.4,4-0.4c3.3,0,5.6,0.6,6.9,1.7c1.3,1.1,1.9,3,1.9,5.7
					c0,17.5-3.1,31.1-9.4,40.9c-2.2,3.4-5,6.1-8.5,8.3c-3.5,2.1-7.5,3.2-11.9,3.2c-6,0-10.5-1.5-13.5-4.6c-3-3.1-4.5-6.6-4.5-10.5
					c0-4,1.1-7.1,3.2-9.5c2.1-2.4,4.8-3.6,7.9-3.6c1.7,0,3.6,0.5,5.7,1.5c-3,3.8-4.6,7.9-4.6,12.1c0,2.5,0.6,4.5,1.7,6
					S18.6,92,21.1,92z"/>
			</g>
		</mask>
		<path class="st4" d="M26.4,22.8c18.9,10,32.7-24.6,2.9-18.2s-28.8,63.8-2,58.9c7.4-2.9,12.7-9.8,15.9-20.5
			c3.4,35.8-10.2,51.5-21.5,52.7S0,78.6,19.8,71.6"/>
	</g>
	<g transform="translate(60 32)">
		<g class="st5">
			<path class="st1" d="M41.2,6.7c2.4,3.4,3.6,7.9,3.6,13.6c0,6.4-1.3,12.2-3.9,17.5c-2.9,6-6.9,10.2-12.2,12.5c-3,1.3-6.2,2-9.8,2
				c-5,0-9.3-1.9-13-5.8s-5.5-9.4-5.5-16.7s1.8-13.6,5.3-19.2s8.3-9,14.1-10.4c0.6,0,1.2,0.2,1.8,0.6c0.5,0.4,0.8,0.8,0.8,1.2
				c-5.8,4-9.3,9.6-10.4,16.8c1.2-3.2,2.7-6,4.4-8.3S20,6.2,21.9,5c3.6-2.2,7.1-3.4,10.6-3.4S38.8,3.3,41.2,6.7z M27.1,7.9
				c-3.7,0-7.1,2.5-10,7.5s-4.4,10-4.4,15c0,10.4,2.7,15.7,8.1,15.7c3.8,0,7-2.5,9.4-7.5s3.6-10.6,3.6-16.9
				C33.8,12.5,31.6,7.9,27.1,7.9z"/>
		</g>
		<defs>
			<filter id="Adobe_OpacityMaskFilter_1_" filterUnits="userSpaceOnUse" x="-0.8" y="-8.4" width="46" height="64.5">
				<feColorMatrix  type="matrix" values="1 0 0 0 0  0 1 0 0 0  0 0 1 0 0  0 0 0 1 0"/>
			</filter>
		</defs>
		<mask maskUnits="userSpaceOnUse" x="-0.8" y="-8.4" width="46" height="64.5" id="pw-goedemorgen-static-f_1_">
			<g class="st6">
				<path id="pw-goedemorgen-static-d_1_" class="st3" d="M41.2,6.7c2.4,3.4,3.6,7.9,3.6,13.6c0,6.4-1.3,12.2-3.9,17.5
					c-2.9,6-6.9,10.2-12.2,12.5c-3,1.3-6.2,2-9.8,2c-5,0-9.3-1.9-13-5.8s-5.5-9.4-5.5-16.7s1.8-13.6,5.3-19.2s8.3-9,14.1-10.4
					c0.6,0,1.2,0.2,1.8,0.6c0.5,0.4,0.8,0.8,0.8,1.2c-5.8,4-9.3,9.6-10.4,16.8c1.2-3.2,2.7-6,4.4-8.3S20,6.2,21.9,5
					c3.6-2.2,7.1-3.4,10.6-3.4S38.8,3.3,41.2,6.7z M27.1,7.9c-3.7,0-7.1,2.5-10,7.5s-4.4,10-4.4,15c0,10.4,2.7,15.7,8.1,15.7
					c3.8,0,7-2.5,9.4-7.5s3.6-10.6,3.6-16.9C33.8,12.5,31.6,7.9,27.1,7.9z"/>
			</g>
		</mask>
		<path class="st7" d="M24.2-2.4c-14.5,0-21.8,21.7-18,38.7s14.3,14.2,20.7,12.5c6.4-1.8,12.3-11.6,12.3-28.8S20.6-4.6,10.8,40.1"/>
	</g>
	<g transform="translate(113 33)">
		<g class="st8">
			<path class="st1" d="M21.2,28.8c-2.8,0-5.4-0.3-8.1-0.9C13,28.5,13,29.4,13,30.6c0,4.8,0.9,8.3,2.7,10.8s3.9,3.6,6.4,3.6
				s4.8-0.7,7.1-2.2c2.2-1.5,4.2-3.6,5.8-6.2C37,37,38,38,38,39.7c-5,7.7-11.6,11.6-19.5,11.6c-4.8,0-9-1.8-12.6-5.5
				s-5.4-8.8-5.4-15.4c0-4.9,0.9-9.6,2.8-14.1S8.2,8,12.3,5S21,0.4,26,0.4s8.7,1.1,11.1,3.4c2.4,2.3,3.5,5.3,3.5,9
				c0,5.4-1.9,9.4-5.6,12S26.6,28.8,21.2,28.8z M24.8,5.7c-2.9,0-5.4,1.8-7.4,5.4s-3.3,8-4,13.2h1.3c5,0,8.7-1.3,11.1-3.9
				s3.6-5.7,3.6-9.3c0-1.5-0.4-2.8-1.2-3.8S26.3,5.7,24.8,5.7z"/>
		</g>
		<defs>
			<filter id="Adobe_OpacityMaskFilter_2_" filterUnits="userSpaceOnUse" x="0.1" y="-4.3" width="44.6" height="59.1">
				<feColorMatrix  type="matrix" values="1 0 0 0 0  0 1 0 0 0  0 0 1 0 0  0 0 0 1 0"/>
			</filter>
		</defs>
		<mask maskUnits="userSpaceOnUse" x="0.1" y="-4.3" width="44.6" height="59.1" id="pw-goedemorgen-static-i_1_">
			<g class="st9">
				<path id="pw-goedemorgen-static-g_1_" class="st3" d="M21.2,28.8c-2.8,0-5.4-0.3-8.1-0.9C13,28.5,13,29.4,13,30.6
					c0,4.8,0.9,8.3,2.7,10.8s3.9,3.6,6.4,3.6s4.8-0.7,7.1-2.2c2.2-1.5,4.2-3.6,5.8-6.2C37,37,38,38,38,39.7
					c-5,7.7-11.6,11.6-19.5,11.6c-4.8,0-9-1.8-12.6-5.5s-5.4-8.8-5.4-15.4c0-4.9,0.9-9.6,2.8-14.1S8.2,8,12.3,5S21,0.4,26,0.4
					s8.7,1.1,11.1,3.4c2.4,2.3,3.5,5.3,3.5,9c0,5.4-1.9,9.4-5.6,12S26.6,28.8,21.2,28.8z M24.8,5.7c-2.9,0-5.4,1.8-7.4,5.4
					s-3.3,8-4,13.2h1.3c5,0,8.7-1.3,11.1-3.9s3.6-5.7,3.6-9.3c0-1.5-0.4-2.8-1.2-3.8S26.3,5.7,24.8,5.7z"/>
			</g>
		</mask>
		<path class="st10" d="M13.6,26.1c33.9-2.5,22-25.9,10-23.2S7.1,18.2,7.1,26.1s-1,18.2,8.7,21.1s21.8-6,21.8-11.6"/>
	</g>
	<g transform="translate(160)">
		<g class="st11">
			<path class="st1" d="M13.1,65.6c0,6.8,2.1,10.2,6.2,10.2c2.2,0,4.3-1.2,6.4-3.5s3.7-5.5,5-9.5c1.3-4,2.4-8.2,3.4-12.7
				c0.9-4.5,1.6-9.3,2.1-14.3c0.8-9.7,1.2-17.4,1.2-22.8s-0.2-9.6-0.7-12.3c4.1,0.9,7,2.9,8.7,5.8c1.7,3,2.5,6.7,2.5,11.3
				s-1,13-2.9,25.3c-1.9,12.3-2.9,21.3-2.9,27c0,5.7,0.3,10.5,0.8,14.4c-4.1-1.1-6.9-3.1-8.4-5.9c-1.5-2.8-2.3-6.4-2.3-10.7
				c-1.8,4.9-4.4,8.8-8,11.7c-3.6,2.9-7.2,4.3-11,4.3S6.3,82.5,4,79.6s-3.6-7.2-3.6-12.8c0-8.9,2.4-16.5,7.3-22.9s10.6-9.6,17.3-9.6
				c1.9,0,4.9,0.5,8.9,1.4c-3.6,0.9-6.7,2.5-9.5,4.8s-4.9,4.9-6.5,7.8C14.7,54,13.1,59.8,13.1,65.6z"/>
		</g>
		<defs>
			<filter id="Adobe_OpacityMaskFilter_3_" filterUnits="userSpaceOnUse" x="-0.6" y="-23.3" width="51" height="113.3">
				<feColorMatrix  type="matrix" values="1 0 0 0 0  0 1 0 0 0  0 0 1 0 0  0 0 0 1 0"/>
			</filter>
		</defs>
		<mask maskUnits="userSpaceOnUse" x="-0.6" y="-23.3" width="51" height="113.3" id="pw-goedemorgen-static-l_1_">
			<g class="st12">
				<path id="pw-goedemorgen-static-j_1_" class="st3" d="M13.1,65.6c0,6.8,2.1,10.2,6.2,10.2c2.2,0,4.3-1.2,6.4-3.5s3.7-5.5,5-9.5
					c1.3-4,2.4-8.2,3.4-12.7c0.9-4.5,1.6-9.3,2.1-14.3c0.8-9.7,1.2-17.4,1.2-22.8s-0.2-9.6-0.7-12.3c4.1,0.9,7,2.9,8.7,5.8
					c1.7,3,2.5,6.7,2.5,11.3s-1,13-2.9,25.3c-1.9,12.3-2.9,21.3-2.9,27c0,5.7,0.3,10.5,0.8,14.4c-4.1-1.1-6.9-3.1-8.4-5.9
					c-1.5-2.8-2.3-6.4-2.3-10.7c-1.8,4.9-4.4,8.8-8,11.7c-3.6,2.9-7.2,4.3-11,4.3S6.3,82.5,4,79.6s-3.6-7.2-3.6-12.8
					c0-8.9,2.4-16.5,7.3-22.9s10.6-9.6,17.3-9.6c1.9,0,4.9,0.5,8.9,1.4c-3.6,0.9-6.7,2.5-9.5,4.8s-4.9,4.9-6.5,7.8
					C14.7,54,13.1,59.8,13.1,65.6z"/>
			</g>
		</mask>
		<path class="st13" d="M33.6,35.9C9.9,32.4,0.7,67.5,9.9,76.6s34.2-4.7,27.8-76.9c16.9,21.7-10.4,65.6,4.2,86.3"/>
	</g>
	<g transform="translate(214 33)">
		<g class="st14">
			<path class="st1" d="M21.2,28.8c-2.8,0-5.4-0.3-8.1-0.9C13,28.5,13,29.4,13,30.6c0,4.8,0.9,8.3,2.7,10.8s3.9,3.6,6.4,3.6
				s4.8-0.7,7.1-2.2c2.2-1.5,4.2-3.6,5.8-6.2C37,37,38,38,38,39.7c-5,7.7-11.6,11.6-19.5,11.6c-4.8,0-9-1.8-12.6-5.5
				s-5.4-8.8-5.4-15.4c0-4.9,0.9-9.6,2.8-14.1S8.2,8,12.3,5S21,0.4,26,0.4s8.7,1.1,11.1,3.4c2.4,2.3,3.5,5.3,3.5,9
				c0,5.4-1.9,9.4-5.6,12S26.6,28.8,21.2,28.8z M24.8,5.7c-2.9,0-5.4,1.8-7.4,5.4s-3.3,8-4,13.2h1.3c5,0,8.7-1.3,11.1-3.9
				s3.6-5.7,3.6-9.3c0-1.5-0.4-2.8-1.2-3.8S26.3,5.7,24.8,5.7z"/>
		</g>
		<defs>
			<filter id="Adobe_OpacityMaskFilter_4_" filterUnits="userSpaceOnUse" x="0.1" y="-4.3" width="44.6" height="59.1">
				<feColorMatrix  type="matrix" values="1 0 0 0 0  0 1 0 0 0  0 0 1 0 0  0 0 0 1 0"/>
			</filter>
		</defs>
		<mask maskUnits="userSpaceOnUse" x="0.1" y="-4.3" width="44.6" height="59.1" id="pw-goedemorgen-static-o_1_">
			<g class="st15">
				<path id="pw-goedemorgen-static-m_1_" class="st3" d="M21.2,28.8c-2.8,0-5.4-0.3-8.1-0.9C13,28.5,13,29.4,13,30.6
					c0,4.8,0.9,8.3,2.7,10.8s3.9,3.6,6.4,3.6s4.8-0.7,7.1-2.2c2.2-1.5,4.2-3.6,5.8-6.2C37,37,38,38,38,39.7
					c-5,7.7-11.6,11.6-19.5,11.6c-4.8,0-9-1.8-12.6-5.5s-5.4-8.8-5.4-15.4c0-4.9,0.9-9.6,2.8-14.1S8.2,8,12.3,5S21,0.4,26,0.4
					s8.7,1.1,11.1,3.4c2.4,2.3,3.5,5.3,3.5,9c0,5.4-1.9,9.4-5.6,12S26.6,28.8,21.2,28.8z M24.8,5.7c-2.9,0-5.4,1.8-7.4,5.4
					s-3.3,8-4,13.2h1.3c5,0,8.7-1.3,11.1-3.9s3.6-5.7,3.6-9.3c0-1.5-0.4-2.8-1.2-3.8S26.3,5.7,24.8,5.7z"/>
			</g>
		</mask>
		<path class="st16" d="M13.6,26.1c33.9-2.5,22-25.9,10-23.2S7.1,18.2,7.1,26.1s-1,18.2,8.7,21.1s21.8-6,21.8-11.6"/>
	</g>
	<g transform="translate(264 31)">
		<g class="st17">
			<path class="st1" d="M37.6,42.9c0,2.9,0.2,5.9,0.5,9.1c-1.8,0.1-3,0.2-3.6,0.2c-3.2,0-5.5-0.6-7-1.7c-1.4-1.1-2.1-2.8-2.1-4.9
				s0.6-6.7,1.8-13.5c1.2-6.8,1.8-12,1.8-15.5s-1.1-5.3-3.4-5.3c-1.3,0-2.6,0.8-4.1,2.3c-1.5,1.5-2.9,3.6-4.2,6.2s-2.4,5.9-3.3,10
				s-1.3,8-1.3,11.7s0.2,7.2,0.5,10.4c-1.8,0.1-3,0.2-3.6,0.2c-3.2,0-5.5-0.6-7-1.7c-1.4-1.1-2.1-3-2.1-5.6C0.5,44.2,1,40,2.2,32
				S4,17.9,4,13.3S3.5,4.4,2.5,0.6c4.2,1.3,7.2,3.2,8.9,5.7s2.5,5.5,2.5,9.1c0,1.8-0.2,4.2-0.6,7c1.9-5.7,4.7-10.5,8.1-14.3
				s6.8-5.7,10.1-5.7s5.6,1.2,7.1,3.6c1.5,2.4,2.2,5.9,2.2,10.4c2.2-4.2,4.7-7.6,7.5-10.1c2.8-2.6,5.4-3.9,7.7-3.9
				c3.5,0,6,1,7.4,3.1c1.5,2.1,2.2,4.9,2.2,8.5s-0.6,8.6-1.7,15.1c-1.1,6.5-1.7,11.2-1.7,14.1s0.4,5.1,1.1,6.5
				c0.7,1.3,2,2.5,3.8,3.5c-0.7,0.1-1.8,0.1-3.2,0.1c-4.8,0-8.2-0.7-10.3-2.2s-3.1-4.1-3.1-7.8c0-2.1,0.6-6.3,1.7-12.4S54,20,54,17
				c0-3.8-1.1-5.7-3.4-5.7c-1.7,0-3.6,1.2-5.5,3.7c-2,2.5-3.7,6.2-5.2,11.3S37.6,36.9,37.6,42.9z"/>
		</g>
		<defs>
			<filter id="Adobe_OpacityMaskFilter_5_" filterUnits="userSpaceOnUse" x="-1.5" y="-6.4" width="70.4" height="67.1">
				<feColorMatrix  type="matrix" values="1 0 0 0 0  0 1 0 0 0  0 0 1 0 0  0 0 0 1 0"/>
			</filter>
		</defs>
		<mask maskUnits="userSpaceOnUse" x="-1.5" y="-6.4" width="70.4" height="67.1" id="pw-goedemorgen-static-r_1_">
			<g class="st18">
				<path id="pw-goedemorgen-static-p_1_" class="st3" d="M37.6,42.9c0,2.9,0.2,5.9,0.5,9.1c-1.8,0.1-3,0.2-3.6,0.2
					c-3.2,0-5.5-0.6-7-1.7c-1.4-1.1-2.1-2.8-2.1-4.9s0.6-6.7,1.8-13.5c1.2-6.8,1.8-12,1.8-15.5s-1.1-5.3-3.4-5.3
					c-1.3,0-2.6,0.8-4.1,2.3c-1.5,1.5-2.9,3.6-4.2,6.2s-2.4,5.9-3.3,10s-1.3,8-1.3,11.7s0.2,7.2,0.5,10.4c-1.8,0.1-3,0.2-3.6,0.2
					c-3.2,0-5.5-0.6-7-1.7c-1.4-1.1-2.1-3-2.1-5.6C0.5,44.2,1,40,2.2,32S4,17.9,4,13.3S3.5,4.4,2.5,0.6c4.2,1.3,7.2,3.2,8.9,5.7
					s2.5,5.5,2.5,9.1c0,1.8-0.2,4.2-0.6,7c1.9-5.7,4.7-10.5,8.1-14.3s6.8-5.7,10.1-5.7s5.6,1.2,7.1,3.6c1.5,2.4,2.2,5.9,2.2,10.4
					c2.2-4.2,4.7-7.6,7.5-10.1c2.8-2.6,5.4-3.9,7.7-3.9c3.5,0,6,1,7.4,3.1c1.5,2.1,2.2,4.9,2.2,8.5s-0.6,8.6-1.7,15.1
					c-1.1,6.5-1.7,11.2-1.7,14.1s0.4,5.1,1.1,6.5c0.7,1.3,2,2.5,3.8,3.5c-0.7,0.1-1.8,0.1-3.2,0.1c-4.8,0-8.2-0.7-10.3-2.2
					s-3.1-4.1-3.1-7.8c0-2.1,0.6-6.3,1.7-12.4S54,20,54,17c0-3.8-1.1-5.7-3.4-5.7c-1.7,0-3.6,1.2-5.5,3.7c-2,2.5-3.7,6.2-5.2,11.3
					S37.6,36.9,37.6,42.9z"/>
			</g>
		</mask>
		<path class="st19" d="M2.3,0c15.2,6.6-1,44,4.3,48.3c0.3,1.5,3.6,1.8,3.8,0.8C16.1,17.6,25,8.6,32.5,7.6s-7,41.8,0,41.8h2
			C38.8,15.7,46.6,7.6,55.7,7.6c11.2-0.8-2.4,25.7,0,36.4c1.6,7.1,5.7,10.3,12.3,9.5"/>
	</g>
	<g transform="translate(339 32)">
		<g class="st20">
			<path class="st1" d="M41.2,6.7c2.4,3.4,3.6,7.9,3.6,13.6c0,6.4-1.3,12.2-3.9,17.5c-2.9,6-6.9,10.2-12.2,12.5c-3,1.3-6.2,2-9.8,2
				c-5,0-9.3-1.9-13-5.8s-5.5-9.4-5.5-16.7s1.8-13.6,5.3-19.2s8.3-9,14.1-10.4c0.6,0,1.2,0.2,1.8,0.6c0.5,0.4,0.8,0.8,0.8,1.2
				c-5.8,4-9.3,9.6-10.4,16.8c1.2-3.2,2.7-6,4.4-8.3S20,6.2,21.9,5c3.6-2.2,7.1-3.4,10.6-3.4S38.8,3.3,41.2,6.7z M27.1,7.9
				c-3.7,0-7.1,2.5-10,7.5s-4.4,10-4.4,15c0,10.4,2.7,15.7,8.1,15.7c3.8,0,7-2.5,9.4-7.5s3.6-10.6,3.6-16.9
				C33.8,12.5,31.6,7.9,27.1,7.9z"/>
		</g>
		<defs>
			<filter id="Adobe_OpacityMaskFilter_6_" filterUnits="userSpaceOnUse" x="-0.8" y="-8.4" width="46" height="64.5">
				<feColorMatrix  type="matrix" values="1 0 0 0 0  0 1 0 0 0  0 0 1 0 0  0 0 0 1 0"/>
			</filter>
		</defs>
		<mask maskUnits="userSpaceOnUse" x="-0.8" y="-8.4" width="46" height="64.5" id="pw-goedemorgen-static-u_1_">
			<g class="st21">
				<path id="pw-goedemorgen-static-s_1_" class="st3" d="M41.2,6.7c2.4,3.4,3.6,7.9,3.6,13.6c0,6.4-1.3,12.2-3.9,17.5
					c-2.9,6-6.9,10.2-12.2,12.5c-3,1.3-6.2,2-9.8,2c-5,0-9.3-1.9-13-5.8s-5.5-9.4-5.5-16.7s1.8-13.6,5.3-19.2s8.3-9,14.1-10.4
					c0.6,0,1.2,0.2,1.8,0.6c0.5,0.4,0.8,0.8,0.8,1.2c-5.8,4-9.3,9.6-10.4,16.8c1.2-3.2,2.7-6,4.4-8.3S20,6.2,21.9,5
					c3.6-2.2,7.1-3.4,10.6-3.4S38.8,3.3,41.2,6.7z M27.1,7.9c-3.7,0-7.1,2.5-10,7.5s-4.4,10-4.4,15c0,10.4,2.7,15.7,8.1,15.7
					c3.8,0,7-2.5,9.4-7.5s3.6-10.6,3.6-16.9C33.8,12.5,31.6,7.9,27.1,7.9z"/>
			</g>
		</mask>
		<path class="st22" d="M24.2-2.4c-14.5,0-21.8,21.7-18,38.7s14.3,14.2,20.7,12.5c6.4-1.8,12.3-11.6,12.3-28.8S20.6-4.6,10.8,40.1"
			/>
	</g>
	<g transform="translate(394 31)">
		<g class="st23">
			<path class="st1" d="M20.6,7.6c2.9-3.5,5.6-5.3,8.1-5.3s4.4,0.9,5.6,2.8c1.3,1.9,1.9,4.3,1.9,7.2s-0.9,5.7-2.6,8.1
				c-1.7,2.5-4.1,3.7-7.2,3.7c-0.8,0-1.7-0.2-2.8-0.7c1.8-2.2,2.7-4.9,2.7-8.1c0-1.8-0.7-2.8-2.2-2.8c-1.1,0-2.3,0.8-3.5,2.3
				s-2.5,3.6-3.6,6.3c-1.1,2.7-2.1,6.1-2.9,10.2s-1.2,8.6-1.2,13.3c0,0.6,0.1,3,0.4,7.3c-1.8,0.1-3,0.2-3.5,0.2
				c-3.3,0-5.6-0.6-7.1-1.7s-2.1-3-2.1-5.7c0-1.1,0.6-5.6,1.8-13.2s1.8-13.8,1.8-18.4S3.6,4.4,2.6,0.6c4.2,1.3,7.1,3.2,8.8,5.6
				s2.5,5.3,2.5,8.5s-0.3,6.3-0.8,9.3C15.2,16.6,17.7,11.1,20.6,7.6z"/>
		</g>
		<defs>
			<filter id="Adobe_OpacityMaskFilter_7_" filterUnits="userSpaceOnUse" x="-0.9" y="-5.7" width="38.6" height="63">
				<feColorMatrix  type="matrix" values="1 0 0 0 0  0 1 0 0 0  0 0 1 0 0  0 0 0 1 0"/>
			</filter>
		</defs>
		<mask maskUnits="userSpaceOnUse" x="-0.9" y="-5.7" width="38.6" height="63" id="pw-goedemorgen-static-x_1_">
			<g class="st24">
				<path id="pw-goedemorgen-static-v_1_" class="st3" d="M20.6,7.6c2.9-3.5,5.6-5.3,8.1-5.3s4.4,0.9,5.6,2.8
					c1.3,1.9,1.9,4.3,1.9,7.2s-0.9,5.7-2.6,8.1c-1.7,2.5-4.1,3.7-7.2,3.7c-0.8,0-1.7-0.2-2.8-0.7c1.8-2.2,2.7-4.9,2.7-8.1
					c0-1.8-0.7-2.8-2.2-2.8c-1.1,0-2.3,0.8-3.5,2.3s-2.5,3.6-3.6,6.3c-1.1,2.7-2.1,6.1-2.9,10.2s-1.2,8.6-1.2,13.3
					c0,0.6,0.1,3,0.4,7.3c-1.8,0.1-3,0.2-3.5,0.2c-3.3,0-5.6-0.6-7.1-1.7s-2.1-3-2.1-5.7c0-1.1,0.6-5.6,1.8-13.2s1.8-13.8,1.8-18.4
					S3.6,4.4,2.6,0.6c4.2,1.3,7.1,3.2,8.8,5.6s2.5,5.3,2.5,8.5s-0.3,6.3-0.8,9.3C15.2,16.6,17.7,11.1,20.6,7.6z"/>
			</g>
		</mask>
		<path class="st25" d="M1.7-0.3c12.5,6.1,1.5,41.6,3.2,48.4l5,1.4c1.3-27,11.4-42.7,17.4-44.4s6.7,14.3-3.5,18.7"/>
	</g>
	<g transform="translate(429 28)">
		<g class="st26">
			<path class="st1" d="M31.2,6.2c1.1,0,1.9,0.1,2.5,0.2c1.5,0.3,2.3,1.3,2.4,3.2c-6.2,1.3-11.2,4.7-14.9,10.1s-5.5,11.1-5.5,17
				c0,6.9,2.1,10.3,6.3,10.3c2.5,0,4.8-1.4,6.8-4.1c3.6-5,6-12.8,7.5-23.4c1.1-8.4,3.1-13.8,6.1-16.2c1.4-1.2,3.2-2.1,5.3-2.8
				c-0.8,6.1-1.2,10.7-1.2,13.8c0,22.9-2.5,40.2-7.4,51.7s-12.9,17.3-24,17.3c-4.5,0-8-1.2-10.5-3.6c-2.5-2.4-3.8-5-3.8-7.8
				s0.9-5.2,2.7-7s4.3-2.7,7.5-2.7c1.3,0,2.7,0.3,4,0.9c-2.2,1.4-3.3,3.6-3.3,6.6c0,2,0.6,3.7,1.8,5.2c1.2,1.5,2.7,2.2,4.4,2.2
				c1.7,0,3.3-0.4,4.6-1.1c1.3-0.7,2.7-2,4-3.8c1.4-1.8,2.6-4.1,3.6-6.9c2.4-6.4,3.6-15,3.9-26.1c-1.7,4.9-4.2,8.9-7.6,11.9
				c-3.4,3-6.8,4.5-10.3,4.5c-4.4,0-7.8-1.7-10.1-5c-2.3-3.4-3.5-7.6-3.5-12.9C2.6,31.6,4.1,26,7,20.8c3.3-6,7.8-10.2,13.6-12.6
				C23.8,6.9,27.4,6.2,31.2,6.2z"/>
		</g>
		<defs>
			<filter id="Adobe_OpacityMaskFilter_8_" filterUnits="userSpaceOnUse" x="-0.6" y="-2.6" width="57.8" height="90.7">
				<feColorMatrix  type="matrix" values="1 0 0 0 0  0 1 0 0 0  0 0 1 0 0  0 0 0 1 0"/>
			</filter>
		</defs>
		<mask maskUnits="userSpaceOnUse" x="-0.6" y="-2.6" width="57.8" height="90.7" id="pw-goedemorgen-static-A_1_">
			<g class="st27">
				<path id="pw-goedemorgen-static-y_1_" class="st3" d="M31.2,6.2c1.1,0,1.9,0.1,2.5,0.2c1.5,0.3,2.3,1.3,2.4,3.2
					c-6.2,1.3-11.2,4.7-14.9,10.1s-5.5,11.1-5.5,17c0,6.9,2.1,10.3,6.3,10.3c2.5,0,4.8-1.4,6.8-4.1c3.6-5,6-12.8,7.5-23.4
					c1.1-8.4,3.1-13.8,6.1-16.2c1.4-1.2,3.2-2.1,5.3-2.8c-0.8,6.1-1.2,10.7-1.2,13.8c0,22.9-2.5,40.2-7.4,51.7s-12.9,17.3-24,17.3
					c-4.5,0-8-1.2-10.5-3.6c-2.5-2.4-3.8-5-3.8-7.8s0.9-5.2,2.7-7s4.3-2.7,7.5-2.7c1.3,0,2.7,0.3,4,0.9c-2.2,1.4-3.3,3.6-3.3,6.6
					c0,2,0.6,3.7,1.8,5.2c1.2,1.5,2.7,2.2,4.4,2.2c1.7,0,3.3-0.4,4.6-1.1c1.3-0.7,2.7-2,4-3.8c1.4-1.8,2.6-4.1,3.6-6.9
					c2.4-6.4,3.6-15,3.9-26.1c-1.7,4.9-4.2,8.9-7.6,11.9c-3.4,3-6.8,4.5-10.3,4.5c-4.4,0-7.8-1.7-10.1-5c-2.3-3.4-3.5-7.6-3.5-12.9
					C2.6,31.6,4.1,26,7,20.8c3.3-6,7.8-10.2,13.6-12.6C23.8,6.9,27.4,6.2,31.2,6.2z"/>
			</g>
		</mask>
		<path class="st28" d="M36.2,9.6c-13.5-5.3-24.2,6.6-27,20C7.9,36.1,7,42,11.8,46.3c14.9,13.1,29-32,38.2-44.5
			c-11.4,34.5-6.5,75.7-33.9,78.7c-11.8,0-12.4-6.1-1.6-18.3"/>
	</g>
	<g transform="translate(485 33)">
		<g class="st29">
			<path class="st1" d="M21.2,28.8c-2.8,0-5.4-0.3-8.1-0.9C13,28.5,13,29.4,13,30.6c0,4.8,0.9,8.3,2.7,10.8s3.9,3.6,6.4,3.6
				s4.8-0.7,7.1-2.2c2.2-1.5,4.2-3.6,5.8-6.2C37,37,38,38,38,39.7c-5,7.7-11.6,11.6-19.5,11.6c-4.8,0-9-1.8-12.6-5.5
				s-5.4-8.8-5.4-15.4c0-4.9,0.9-9.6,2.8-14.1S8.2,8,12.3,5S21,0.4,26,0.4s8.7,1.1,11.1,3.4c2.4,2.3,3.5,5.3,3.5,9
				c0,5.4-1.9,9.4-5.6,12S26.6,28.8,21.2,28.8z M24.8,5.7c-2.9,0-5.4,1.8-7.4,5.4s-3.3,8-4,13.2h1.3c5,0,8.7-1.3,11.1-3.9
				s3.6-5.7,3.6-9.3c0-1.5-0.4-2.8-1.2-3.8S26.3,5.7,24.8,5.7z"/>
		</g>
		<defs>
			<filter id="Adobe_OpacityMaskFilter_9_" filterUnits="userSpaceOnUse" x="0.1" y="-4.3" width="44.6" height="59.1">
				<feColorMatrix  type="matrix" values="1 0 0 0 0  0 1 0 0 0  0 0 1 0 0  0 0 0 1 0"/>
			</filter>
		</defs>
		<mask maskUnits="userSpaceOnUse" x="0.1" y="-4.3" width="44.6" height="59.1" id="pw-goedemorgen-static-D_1_">
			<g class="st30">
				<path id="pw-goedemorgen-static-B_1_" class="st3" d="M21.2,28.8c-2.8,0-5.4-0.3-8.1-0.9C13,28.5,13,29.4,13,30.6
					c0,4.8,0.9,8.3,2.7,10.8s3.9,3.6,6.4,3.6s4.8-0.7,7.1-2.2c2.2-1.5,4.2-3.6,5.8-6.2C37,37,38,38,38,39.7
					c-5,7.7-11.6,11.6-19.5,11.6c-4.8,0-9-1.8-12.6-5.5s-5.4-8.8-5.4-15.4c0-4.9,0.9-9.6,2.8-14.1S8.2,8,12.3,5S21,0.4,26,0.4
					s8.7,1.1,11.1,3.4c2.4,2.3,3.5,5.3,3.5,9c0,5.4-1.9,9.4-5.6,12S26.6,28.8,21.2,28.8z M24.8,5.7c-2.9,0-5.4,1.8-7.4,5.4
					s-3.3,8-4,13.2h1.3c5,0,8.7-1.3,11.1-3.9s3.6-5.7,3.6-9.3c0-1.5-0.4-2.8-1.2-3.8S26.3,5.7,24.8,5.7z"/>
			</g>
		</mask>
		<path class="st31" d="M13.6,26.1c33.9-2.5,22-25.9,10-23.2S7.1,18.2,7.1,26.1s-1,18.2,8.7,21.1s21.8-6,21.8-11.6"/>
	</g>
	<g transform="translate(535 31)">
		<g class="st32">
			<path class="st1" d="M40.5,5.5c1.5,2.1,2.2,4.9,2.2,8.5s-0.6,8.6-1.7,15.1c-1.1,6.5-1.7,11.2-1.7,14.1s0.4,5.1,1.1,6.5
				c0.7,1.3,2,2.5,3.8,3.5c-0.7,0.1-1.8,0.1-3.2,0.1c-4.8,0-8.2-0.7-10.3-2.2s-3.1-4.1-3.1-7.8c0-2.1,0.6-6.3,1.7-12.4
				c1.1-6.2,1.7-10.8,1.7-13.8c0-3.8-1.1-5.7-3.4-5.7c-1.3,0-2.8,0.8-4.5,2.3S20,17.3,18.4,20s-2.8,6.1-3.9,10.3S13,38.6,13,42.8
				s0.2,7.2,0.5,9.2c-1.8,0.1-3,0.2-3.6,0.2c-3.3,0-5.6-0.6-7.1-1.7s-2.2-3-2.2-5.7c0-1.1,0.6-5.6,1.8-13.2s1.8-13.8,1.8-18.4
				S3.8,4.4,2.9,0.6C7,1.9,10,3.8,11.6,6.2s2.5,5.2,2.5,8.3s-0.3,6.8-1,10.9C15,19,18,13.6,22,9.1s7.8-6.7,11.2-6.7S39,3.4,40.5,5.5
				z"/>
		</g>
		<defs>
			<filter id="Adobe_OpacityMaskFilter_10_" filterUnits="userSpaceOnUse" x="-2.1" y="-6.5" width="48" height="67.3">
				<feColorMatrix  type="matrix" values="1 0 0 0 0  0 1 0 0 0  0 0 1 0 0  0 0 0 1 0"/>
			</filter>
		</defs>
		<mask maskUnits="userSpaceOnUse" x="-2.1" y="-6.5" width="48" height="67.3" id="pw-goedemorgen-static-G_1_">
			<g class="st33">
				<path id="pw-goedemorgen-static-E_1_" class="st3" d="M40.5,5.5c1.5,2.1,2.2,4.9,2.2,8.5s-0.6,8.6-1.7,15.1
					c-1.1,6.5-1.7,11.2-1.7,14.1s0.4,5.1,1.1,6.5c0.7,1.3,2,2.5,3.8,3.5c-0.7,0.1-1.8,0.1-3.2,0.1c-4.8,0-8.2-0.7-10.3-2.2
					s-3.1-4.1-3.1-7.8c0-2.1,0.6-6.3,1.7-12.4c1.1-6.2,1.7-10.8,1.7-13.8c0-3.8-1.1-5.7-3.4-5.7c-1.3,0-2.8,0.8-4.5,2.3
					S20,17.3,18.4,20s-2.8,6.1-3.9,10.3S13,38.6,13,42.8s0.2,7.2,0.5,9.2c-1.8,0.1-3,0.2-3.6,0.2c-3.3,0-5.6-0.6-7.1-1.7
					s-2.2-3-2.2-5.7c0-1.1,0.6-5.6,1.8-13.2s1.8-13.8,1.8-18.4S3.8,4.4,2.9,0.6C7,1.9,10,3.8,11.6,6.2s2.5,5.2,2.5,8.3
					s-0.3,6.8-1,10.9C15,19,18,13.6,22,9.1s7.8-6.7,11.2-6.7S39,3.4,40.5,5.5z"/>
			</g>
		</mask>
		<path class="st34" d="M2.3,0.1c15.4,8-2.4,46.1,5,47.5C14.8,49.1,14.8,5.7,31,5.7c11.1,2.9,0.4,32.2,2.5,39.3
			c1.4,4.7,5.2,7.5,11.4,8.4"/>
	</g>
</g>
</svg>
